<svg width="54" height="64" viewBox="0 0 54 64" fill="none" xmlns="http://www.w3.org/2000/svg">
<path fill-rule="evenodd" clip-rule="evenodd" d="M27.0194 28.4715C29.0148 28.4715 31.0011 26.7683 30.7584 23.3523C30.6775 22.2806 30.309 20.8835 29.8057 19.9362C29.6349 19.6013 29.7068 19.1899 29.9854 18.9506C30.2641 18.7114 30.6595 18.7114 30.9292 18.9698C36.978 24.5866 29.6529 37.1121 27.6216 44.614C27.4059 45.59 26.615 45.5613 26.3813 44.614C24.368 37.1121 17.0699 24.5675 23.1367 18.9698C23.4063 18.721 23.8018 18.7114 24.0804 18.9602C24.359 19.1994 24.4309 19.6205 24.2512 19.9458C23.7479 20.8931 23.3704 22.2901 23.2895 23.3618C23.0468 26.7587 25.0331 28.4715 27.0194 28.4715Z" fill="#F4AE13"/>
<path fill-rule="evenodd" clip-rule="evenodd" d="M27.0284 22.0892C28.1429 22.0892 29.0507 23.0556 29.0417 24.2421C29.0417 25.4287 28.134 26.3951 27.0195 26.3951C25.905 26.3951 24.9972 25.4287 25.0062 24.2421C25.0062 23.046 25.9139 22.0892 27.0284 22.0892Z" fill="#F4AE13"/>
<path fill-rule="evenodd" clip-rule="evenodd" d="M40.2226 19.3717C42.1639 18.9029 43.7458 16.7595 42.7841 13.4869C42.4875 12.4631 41.8224 11.1905 41.1393 10.3867C40.8966 10.0996 40.8787 9.6786 41.1034 9.38196C41.3281 9.08533 41.7145 8.98964 42.0291 9.17145C45.4265 11.1043 46.7298 15.4007 45.9478 20.0607C43.611 33.8971 30.7224 43.0065 29.8416 41.2458C33.8322 37.4184 37.6071 28.2994 35.3421 24.1944C32.8255 19.6301 31.9357 14.6448 34.4344 11.0086C34.6411 10.6929 35.0276 10.5972 35.3511 10.7694C35.6747 10.9417 35.8365 11.3244 35.7286 11.688C35.432 12.731 35.3601 14.1855 35.5129 15.2476C35.9803 18.6445 38.2812 19.8406 40.2226 19.3717Z" fill="#691188"/>
<path fill-rule="evenodd" clip-rule="evenodd" d="M38.8834 13.1424C39.9709 12.8745 41.0585 13.6017 41.3011 14.7595C41.5528 15.9173 40.8697 17.0752 39.7822 17.3335C38.6947 17.6014 37.6071 16.8742 37.3644 15.7164C37.1128 14.5586 37.7959 13.4103 38.8834 13.1424Z" fill="#691188"/>
<path fill-rule="evenodd" clip-rule="evenodd" d="M13.8431 19.3334C11.9018 18.855 10.3289 16.7116 11.2906 13.4391C11.5962 12.4152 12.2523 11.1426 12.9444 10.3388C13.187 10.0518 13.205 9.63074 12.9803 9.33411C12.7556 9.03748 12.3781 8.94179 12.0546 9.1236C8.64815 11.0469 7.33592 15.3433 8.10888 20.0032C10.4098 33.8492 23.2804 42.9873 24.1702 41.2363C20.1886 37.3992 16.4406 28.2706 18.7056 24.1752C21.2312 19.6109 22.13 14.6352 19.6403 10.9991C19.4336 10.6833 19.0471 10.5876 18.7236 10.7599C18.4 10.9321 18.2382 11.3148 18.3461 11.6784C18.6337 12.7214 18.7056 14.1759 18.5618 15.238C18.0854 18.6254 15.7845 19.8119 13.8431 19.3334Z" fill="#691188"/>
<path fill-rule="evenodd" clip-rule="evenodd" d="M15.2004 13.1137C14.1128 12.8457 13.0253 13.5634 12.7736 14.7308C12.522 15.8886 13.205 17.0464 14.2926 17.3143C15.3801 17.5823 16.4676 16.8646 16.7193 15.6972C16.962 14.5394 16.2789 13.3816 15.2004 13.1137Z" fill="#691188"/>
<path d="M26.4531 0.817912C24.1791 -1.1054 18.9302 0.329905 19.6852 5.47788C20.1615 8.75996 23.4241 13.0563 26.0846 14.5395C26.3991 14.6734 26.7227 14.7404 27.0373 14.7404C27.3518 14.7404 27.6754 14.6734 27.999 14.5395C30.6594 13.0659 33.931 8.7791 34.4163 5.49702C34.7309 3.38233 34.0298 1.89918 32.9423 1.00929C32.0525 0.291632 31.0369 0.0332766 30.0033 0.0715515C28.1518 0.148101 25.9767 1.28678 25.1858 2.69338C25.3386 1.8322 26.1205 1.02842 26.4531 0.817912Z" fill="#691188"/>
<path fill-rule="evenodd" clip-rule="evenodd" d="M26.9835 63.4261C21.8065 53.0727 26.0937 46.3459 34.4704 42.1931C36.978 40.9491 39.2789 40.6621 40.7619 39.2459C43.0898 37.0164 46.0288 32.1172 47.9342 31.2656C50.6845 30.0408 49.9745 32.7296 49.9745 32.7296C49.9745 32.7296 47.0175 38.8727 46.5951 39.5138C46.1726 40.1549 44.2133 42.3558 43.5841 42.6141C44.2402 42.5854 45.7592 41.2266 47.0804 39.7148C47.4759 39.2651 47.7365 38.557 48.0691 37.868C49.5251 34.8921 50.8553 33.1985 50.8553 31.7249C50.8553 30.2513 49.4712 30.347 49.4712 30.347C49.4712 30.347 50.1722 27.7634 49.624 23.1609C49.2824 20.2615 50.9452 18.8645 51.808 19.2855C52.1945 19.4673 52.2754 21.649 52.3743 22.4049C52.7697 25.6775 53.9651 31.0359 53.3719 33.3516C52.6169 36.2987 51.1339 43.2839 48.0241 46.566C39.4137 55.6467 31.7561 50.7667 26.9835 63.4261Z" fill="#055860"/>
<path fill-rule="evenodd" clip-rule="evenodd" d="M26.9834 63.4261C32.1874 53.0823 27.9092 46.3459 19.5414 42.174C17.0428 40.93 14.7329 40.6334 13.2589 39.2077C10.94 36.9686 8.00999 32.0694 6.10456 31.2082C3.35427 29.9738 4.05532 32.6627 4.05532 32.6627C4.05532 32.6627 7.00334 38.8154 7.41679 39.4565C7.83922 40.0976 9.78959 42.3079 10.4187 42.5567C9.76262 42.5185 8.24367 41.1693 6.93144 39.6478C6.53597 39.1981 6.27533 38.4804 5.94278 37.7915C4.48674 34.8061 3.16552 33.1124 3.16552 31.6484C3.16552 30.1748 4.55864 30.2705 4.55864 30.2705C4.55864 30.2705 3.86657 27.6869 4.42382 23.0844C4.77435 20.185 3.11159 18.788 2.24876 19.1995C1.86228 19.3813 1.7724 21.5629 1.68252 22.3189C1.27806 25.5914 0.0736865 30.9499 0.666887 33.2655C1.41288 36.2127 2.87791 43.1978 5.97872 46.4895C14.5711 55.6181 22.2378 50.7571 26.9834 63.4261Z" fill="#055860"/>
</svg>
