<svg width="133" height="133" viewBox="0 0 133 133" fill="none" xmlns="http://www.w3.org/2000/svg">
<g clip-path="url(#clip0_162_636)">
<path d="M66.5064 125.109L92.6561 118.506C107.582 106.112 117.089 87.4173 117.089 66.5002C117.089 34.2365 94.4763 7.2546 64.2346 0.53833C28.8328 1.73226 0.5 30.8073 0.5 66.4999C0.5 84.8335 7.97656 101.42 20.0453 113.38L66.5064 125.109Z" fill="#CBE2FF"/>
<path d="M115.72 66.5C115.72 88.1343 105.309 107.335 89.2258 119.372L112.953 113.38C125.022 101.42 132.5 84.8341 132.5 66.5C132.5 30.0492 102.951 0.5 66.4999 0.5C63.6577 0.5 60.8574 0.679953 58.1099 1.02852C90.5992 5.15042 115.72 32.8916 115.72 66.5Z" fill="#BED8FB"/>
<path d="M82.9025 25.4968C82.9025 22.1259 80.1699 19.3933 76.799 19.3933H55.7662C48.0083 19.3933 41.7192 25.6824 41.7192 33.4402V49.0361H91.2731V33.6614C91.2731 30.2905 88.5406 27.558 85.1697 27.558H84.9639C83.8254 27.558 82.9025 26.6353 82.9025 25.4968Z" fill="#365E7D"/>
<path d="M85.1695 27.5565H84.9637C83.8252 27.5565 82.9023 26.6336 82.9023 25.4951C82.9023 22.1242 80.1697 19.3916 76.7988 19.3916H74.4927V49.0344H91.2727V33.6597C91.2729 30.2893 88.5401 27.5565 85.1695 27.5565Z" fill="#2B4D66"/>
<path d="M110.082 96.4976C108.468 94.9038 106.472 93.6712 104.206 92.954L86.1877 87.2491L66.5042 86.5574L46.8125 87.2491L28.7937 92.954C22.698 94.8839 18.5552 100.541 18.5552 106.935V111.858C30.1023 124.059 46.2574 131.856 64.2352 132.462C84.3775 127.988 101.136 114.524 110.082 96.4976Z" fill="black"/>
<path d="M114.445 111.857V106.935C114.445 102.414 112.372 98.2633 109.004 95.5361C99.4361 115.033 80.5356 129.121 58.1255 131.969C60.8305 132.312 63.5854 132.495 66.3822 132.5C69.0694 132.496 71.721 132.34 74.329 132.04C90.0636 130.181 104.102 122.786 114.445 111.857Z" fill="black"/>
<path d="M67.9942 131.512C71.9874 123.584 82.3858 101.073 79.4207 87.0112L66.504 81.9841L53.5752 87.0115C50.5186 101.507 61.6628 124.981 65.3524 132.203C66.2398 131.99 67.1207 131.76 67.9942 131.512Z" fill="#E4F6FF"/>
<path d="M74.8009 125.227L69.5637 104.623H63.4362L58.2119 125.17L64.6722 132.363C66.3121 131.987 67.9294 131.552 69.5217 131.059L74.8009 125.227Z" fill="black"/>
<path d="M64.7728 132.475C65.3078 132.489 65.8438 132.499 66.3819 132.5C67.0045 132.499 67.625 132.488 68.2438 132.471L71.5714 128.795C68.9522 129.714 66.2578 130.472 63.4995 131.058L64.7728 132.475Z" fill="black"/>
<path d="M77.5279 85.1095V73.491H55.4644V85.1095C55.4644 91.2021 66.4962 97.8573 66.4962 97.8573C66.4962 97.8573 77.5279 91.2021 77.5279 85.1095Z" fill="#FFDDCE"/>
<path d="M91.2731 46.988H87.0556C84.71 46.988 82.8086 45.0866 82.8086 42.7411V40.4169C82.8086 37.3615 79.8193 35.2013 76.9184 36.1601C70.1526 38.3964 62.8472 38.3969 56.0812 36.1617L56.0732 36.1591C53.1723 35.2008 50.1835 37.361 50.1835 40.4161V42.7413C50.1835 45.0869 48.2821 46.9883 45.9365 46.9883H41.7192V53.9332C41.7192 55.7077 43.1578 57.1466 44.9326 57.1466C45.4926 57.1466 45.9481 57.5851 45.9835 58.1441C46.661 68.8866 55.5831 77.3908 66.4963 77.3908C77.4095 77.3908 86.3316 68.8866 87.0092 58.1441C87.0445 57.5854 87.5 57.1466 88.06 57.1466C89.8345 57.1466 91.2734 55.708 91.2734 53.9332V46.988H91.2731Z" fill="#FFDDCE"/>
<path d="M87.0555 46.9877C84.7099 46.9877 82.8086 45.0863 82.8086 42.7407V40.4166C82.8086 37.3612 79.8192 35.201 76.9183 36.1598C76.117 36.4246 75.3078 36.6556 74.4931 36.8577V59.7958C74.3802 67.259 70.2907 73.7543 64.2515 77.2647C64.9891 77.3449 65.7372 77.39 66.496 77.39C77.4092 77.39 86.3313 68.8858 87.0089 58.1432C87.0442 57.5846 87.4997 57.1458 88.0597 57.1458C89.8342 57.1458 91.2731 55.7072 91.2731 53.9324V46.9874H87.0555V46.9877Z" fill="#FFCBBE"/>
<path d="M55.4642 81.9841L46.8125 89.0139L55.8854 100.232C56.9891 101.307 58.7263 101.373 59.9086 100.385L66.7316 94.6858L55.4642 81.9841Z" fill="#F4FBFF"/>
<path d="M77.5322 81.9841L66.7319 94.6858L73.1448 100.169C74.3196 101.173 76.065 101.123 77.1798 100.052L86.1877 89.0139L77.5322 81.9841Z" fill="#F4FBFF"/>
<path d="M55.4644 81.9841L42.7656 88.2229C41.7988 88.6978 41.4105 89.874 41.9042 90.8312L44.3921 95.6549C45.0369 96.9048 44.799 98.4279 43.8038 99.4215C43.2915 99.9328 42.7367 100.487 42.2559 100.967C41.3953 101.826 41.0862 103.095 41.4652 104.25C44.469 113.407 58.9255 127.409 64.3966 132.475C64.7645 132.485 65.1332 132.492 65.5026 132.496C61.5351 124.779 47.4758 95.4597 55.4644 81.9841Z" fill="#365E7D"/>
<path d="M89.1925 99.4213C88.1971 98.4277 87.9594 96.9045 88.6042 95.6546L91.0921 90.831C91.5858 89.8737 91.1975 88.6976 90.2307 88.2227L77.5319 81.9841C85.5184 95.4561 71.4689 124.763 67.4971 132.49C67.8704 132.483 68.2429 132.474 68.6147 132.462C74.0971 127.384 88.5302 113.399 91.5311 104.251C91.9101 103.095 91.601 101.826 90.7404 100.967C90.2596 100.487 89.7048 99.9325 89.1925 99.4213Z" fill="#365E7D"/>
<path d="M66.7318 94.6858L60.0132 100.297L63.4364 104.623H69.5639L72.9874 100.042L66.7318 94.6858Z" fill="black"/>
</g>
<defs>
<clipPath id="clip0_162_636">
<rect width="132" height="132" fill="white" transform="translate(0.5 0.5)"/>
</clipPath>
</defs>
</svg>
