<svg width="70" height="71" viewBox="0 0 70 71" fill="none" xmlns="http://www.w3.org/2000/svg">
<path fill-rule="evenodd" clip-rule="evenodd" d="M35 0.924805C15.6953 0.924805 0 16.6201 0 35.9248C0 55.2295 15.6953 70.9248 35 70.9248C54.3047 70.9248 70 55.2295 70 35.9248C70 16.6201 54.3047 0.924805 35 0.924805Z" fill="#691188"/>
<path d="M28.2598 51.9346C23.7891 47.4639 19.3457 42.9522 14.8613 38.4814C14.3691 37.9893 14.3691 37.1689 14.8613 36.6768L20.0156 31.5225C20.5078 31.0303 21.3281 31.0303 21.8203 31.5225L29.1895 38.8916L48.1387 19.9287C48.6445 19.4365 49.4512 19.4365 49.957 19.9287L55.125 25.0967C55.6309 25.6025 55.6309 26.4092 55.125 26.9014L30.0645 51.9346C29.5723 52.4404 28.7656 52.4404 28.2598 51.9346Z" fill="white"/>
</svg>
