<svg width="15" height="12" viewBox="0 0 15 12" fill="none" xmlns="http://www.w3.org/2000/svg">
<path d="M14.3508 6.22262L14.5363 5.94523L14.3508 5.66784C13.7989 4.84234 10.9904 1.22452 7.33258 1.22452C6.17186 1.22452 5.06852 1.58775 4.06656 2.15945L2.10268 0.329102L1.30674 1.07088L3.13095 2.77107C2.03062 3.58249 0.913882 4.77108 0.314345 5.66784L0.128906 5.94523L0.314373 6.22262C0.86627 7.04812 3.67477 10.6659 7.33258 10.6659C8.4933 10.6659 9.59665 10.3027 10.5986 9.73101L12.5625 11.5614L13.3584 10.8196L11.5342 9.11941C12.6345 8.30797 13.7513 7.11935 14.3508 6.22262ZM7.33258 9.6169C4.49512 9.6169 2.15882 6.84337 1.47656 5.94481C1.8536 5.44693 2.73633 4.37517 3.93183 3.51747L4.98582 4.4998C4.69077 4.91452 4.51865 5.41145 4.51865 5.94523C4.51865 7.39134 5.78095 8.56785 7.33258 8.56785C7.9053 8.56785 8.43849 8.40742 8.88345 8.13244L9.77741 8.96562C9.03301 9.35466 8.20718 9.6169 7.33258 9.6169ZM8.85593 6.62323L6.60512 4.52542C6.82554 4.42692 7.07224 4.37163 7.33258 4.37163C8.26354 4.37163 9.02094 5.07754 9.02094 5.9452C9.02094 6.18785 8.96162 6.4178 8.85593 6.62323ZM8.06004 7.36504C7.83962 7.46352 7.5929 7.5188 7.33258 7.5188C6.40162 7.5188 5.64422 6.8129 5.64422 5.94523C5.64422 5.70261 5.70354 5.47266 5.80923 5.26723L8.06004 7.36504ZM10.7333 8.37296L9.67935 7.39063C9.97439 6.97595 10.1465 6.47901 10.1465 5.94523C10.1465 4.49912 8.88421 3.32261 7.33258 3.32261C6.75986 3.32261 6.22668 3.48304 5.78171 3.75802L4.88775 2.92484C5.63215 2.5358 6.45798 2.27356 7.33258 2.27356C10.1698 2.27356 12.506 5.04669 13.1886 5.94565C12.8116 6.44353 11.9288 7.51529 10.7333 8.37296Z" fill="#8F8F8F"/>
</svg>
