<svg width="19" height="13" viewBox="0 0 19 13" fill="none" xmlns="http://www.w3.org/2000/svg">
<path d="M9.56936 7.92679C10.5348 7.92679 11.3174 7.14262 11.3174 6.17531C11.3174 5.20799 10.5348 4.42383 9.56936 4.42383C8.60393 4.42383 7.82129 5.20799 7.82129 6.17531C7.82129 7.14262 8.60393 7.92679 9.56936 7.92679Z" fill="#BFBFBF"/>
<path d="M0.944704 6.73001C2.09551 8.17498 5.51881 12.0282 9.5685 12.0282C13.6182 12.0282 17.0415 8.17513 18.1923 6.73001C18.4398 6.40891 18.4398 5.95644 18.1923 5.65008C17.0415 4.20511 13.6182 0.351848 9.5685 0.351848C5.51881 0.337252 2.09551 4.19051 0.944704 5.63548C0.682494 5.95659 0.682494 6.40891 0.944704 6.73001ZM9.5685 2.67256C11.5059 2.67256 13.0646 4.2343 13.0646 6.17552C13.0646 8.11675 11.5059 9.67848 9.5685 9.67848C7.63106 9.67848 6.07237 8.11675 6.07237 6.17552C6.07237 4.2343 7.63106 2.67256 9.5685 2.67256Z" fill="#BFBFBF"/>
</svg>
