<svg width="44" height="44" viewBox="0 0 44 44" fill="none" xmlns="http://www.w3.org/2000/svg">
<path fill-rule="evenodd" clip-rule="evenodd" d="M6.89807 8.75685C6.89807 5.39267 9.66135 2.66546 13.07 2.66546H22.0474C22.977 2.66546 23.7307 3.40924 23.7307 4.32675C23.7307 5.24425 22.977 5.98803 22.0474 5.98803H13.07C11.5206 5.98803 10.2646 7.22767 10.2646 8.75685V10.9719C10.2646 11.8894 9.51097 12.6332 8.58133 12.6332C7.65169 12.6332 6.89807 11.8894 6.89807 10.9719V8.75685ZM8.58133 31.4611C9.51097 31.4611 10.2646 32.2049 10.2646 33.1224V35.3375C10.2646 36.8666 11.5206 38.1063 13.07 38.1063H22.0474C22.977 38.1063 23.7307 38.8501 23.7307 39.7676C23.7307 40.6851 22.977 41.4289 22.0474 41.4289H13.07C9.66135 41.4289 6.89807 38.7016 6.89807 35.3375V33.1224C6.89807 32.2049 7.65169 31.4611 8.58133 31.4611Z" fill="#691188"/>
<path fill-rule="evenodd" clip-rule="evenodd" d="M23.7307 6.2616C23.7307 4.33318 25.6782 2.99538 27.5104 3.66515L38.7322 7.76708C39.8327 8.16936 40.5632 9.20524 40.5632 10.3635V33.7307C40.5632 34.889 39.8327 35.9249 38.7322 36.3272L27.5105 40.4291C25.6782 41.0989 23.7307 39.7611 23.7307 37.8327V6.2616ZM28.6797 0.549407C24.6486 -0.924079 20.3641 2.01907 20.3641 6.2616V37.8327C20.3641 42.0752 24.6486 45.0184 28.6797 43.5449L39.9014 39.4429C42.3226 38.5579 43.9297 36.2789 43.9297 33.7307V10.3635C43.9297 7.8153 42.3226 5.53637 39.9014 4.65133L28.6797 0.549407Z" fill="#691188"/>
<path fill-rule="evenodd" clip-rule="evenodd" d="M7.52723 16.4423C6.86987 15.7936 5.8041 15.7936 5.14674 16.4423L0.658053 20.8724C0.000700936 21.5212 0.000700936 22.5731 0.658053 23.2219L5.14674 27.652C5.8041 28.3007 6.86987 28.3007 7.52723 27.652C8.18458 27.0032 8.18458 25.9513 7.52723 25.3025L5.91204 23.7084H15.3144C16.244 23.7084 16.9976 22.9647 16.9976 22.0472C16.9976 21.1297 16.244 20.3859 15.3144 20.3859H5.91204L7.52723 18.7918C8.18458 18.143 8.18458 17.0911 7.52723 16.4423Z" fill="#691188"/>
</svg>
