<svg width="310" height="310" viewBox="0 0 310 310" fill="none" xmlns="http://www.w3.org/2000/svg">
<g opacity="0.5" filter="url(#filter0_f_58_813)">
<path d="M31.5201 148.952V266.896C32.2572 277.264 39.9004 285.679 50.3026 285.679H108.462V148.952H31.5201ZM202.302 148.952V285.679H260.465C262.933 285.684 265.378 285.201 267.658 284.259C269.939 283.317 272.012 281.934 273.757 280.188C275.501 278.443 276.884 276.371 277.826 274.09C278.768 271.809 279.25 269.364 279.244 266.896V148.952H202.302ZM213.914 52.049C225.125 52.049 231.673 60.6739 231.511 66.5949C231.349 72.9258 227.116 77.8444 220.909 77.8444H182.445L191.218 67.0392C199.488 57.0021 205.716 52.049 213.914 52.049ZM92.4798 52.049C100.698 52.049 106.905 57.0021 115.175 67.0392L123.948 77.8444H85.4842C79.2738 77.8444 75.044 72.9258 74.8822 66.5949C74.7203 60.6739 81.2888 52.049 92.4798 52.049ZM90.0033 24.6036C67.7246 24.6036 49.5517 42.8764 47.0924 63.3123C46.525 68.2302 46.9454 73.2118 48.3289 77.965H34.7165C25.6921 77.965 18.4277 85.5531 18.4277 94.9909V116.074C18.4277 125.491 25.6921 133.076 34.7165 133.076H276.038C285.059 133.076 292.344 125.495 292.344 116.074V94.9909C292.344 85.5531 285.059 77.965 276.038 77.965H258.044C259.46 73.1221 259.873 68.0898 259.298 63.3123C256.838 42.873 238.669 24.6036 213.91 24.6036C194.105 24.6036 180.075 37.4066 170.066 49.5552C152.213 72.6778 155.282 72.6433 136.355 49.5552C126.332 37.4032 112.285 24.6036 90.0033 24.6036ZM129.129 148.952H181.643V285.679H129.129V148.952Z" fill="url(#paint0_linear_58_813)"/>
</g>
<defs>
<filter id="filter0_f_58_813" x="-12" y="-12" width="334" height="334" filterUnits="userSpaceOnUse" color-interpolation-filters="sRGB">
<feFlood flood-opacity="0" result="BackgroundImageFix"/>
<feBlend mode="normal" in="SourceGraphic" in2="BackgroundImageFix" result="shape"/>
<feGaussianBlur stdDeviation="6" result="effect1_foregroundBlur_58_813"/>
</filter>
<linearGradient id="paint0_linear_58_813" x1="155.386" y1="24.6036" x2="155.386" y2="285.679" gradientUnits="userSpaceOnUse">
<stop stop-color="white"/>
<stop offset="0.807292" stop-color="#300041"/>
</linearGradient>
</defs>
</svg>
