<svg width="25" height="25" viewBox="0 0 25 25" fill="none" xmlns="http://www.w3.org/2000/svg">
<path fill-rule="evenodd" clip-rule="evenodd" d="M5.11719 11.7183C5.11719 8.40926 7.80819 5.71826 11.1172 5.71826C14.4262 5.71826 17.1172 8.40926 17.1172 11.7183C17.1172 15.0273 14.4262 17.7183 11.1172 17.7183C7.80819 17.7183 5.11719 15.0273 5.11719 11.7183ZM20.8242 20.0113L17.4292 16.6153C18.4822 15.2613 19.1172 13.5643 19.1172 11.7183C19.1172 7.30726 15.5282 3.71826 11.1172 3.71826C6.70619 3.71826 3.11719 7.30726 3.11719 11.7183C3.11719 16.1293 6.70619 19.7183 11.1172 19.7183C12.9632 19.7183 14.6602 19.0833 16.0142 18.0303L19.4102 21.4253C19.6052 21.6203 19.8612 21.7183 20.1172 21.7183C20.3732 21.7183 20.6292 21.6203 20.8242 21.4253C21.2152 21.0343 21.2152 20.4023 20.8242 20.0113Z" fill="#BFBFBF"/>
<mask id="mask0_2073_40281" style="mask-type:luminance" maskUnits="userSpaceOnUse" x="3" y="3" width="19" height="19">
<path fill-rule="evenodd" clip-rule="evenodd" d="M5.11719 11.7183C5.11719 8.40926 7.80819 5.71826 11.1172 5.71826C14.4262 5.71826 17.1172 8.40926 17.1172 11.7183C17.1172 15.0273 14.4262 17.7183 11.1172 17.7183C7.80819 17.7183 5.11719 15.0273 5.11719 11.7183ZM20.8242 20.0113L17.4292 16.6153C18.4822 15.2613 19.1172 13.5643 19.1172 11.7183C19.1172 7.30726 15.5282 3.71826 11.1172 3.71826C6.70619 3.71826 3.11719 7.30726 3.11719 11.7183C3.11719 16.1293 6.70619 19.7183 11.1172 19.7183C12.9632 19.7183 14.6602 19.0833 16.0142 18.0303L19.4102 21.4253C19.6052 21.6203 19.8612 21.7183 20.1172 21.7183C20.3732 21.7183 20.6292 21.6203 20.8242 21.4253C21.2152 21.0343 21.2152 20.4023 20.8242 20.0113Z" fill="white"/>
</mask>
<g mask="url(#mask0_2073_40281)">
</g>
</svg>
