<svg width="76" height="76" viewBox="0 0 76 76" fill="none" xmlns="http://www.w3.org/2000/svg">
<circle cx="37.751" cy="38.0579" r="36.75" stroke="#691188" stroke-width="1.5"/>
<path d="M62.4725 21.8392L58.31 17.6767C58.3015 17.6679 58.2913 17.6608 58.28 17.656C58.2687 17.6512 58.2566 17.6487 58.2443 17.6487C58.2321 17.6487 58.2199 17.6512 58.2087 17.656C58.1974 17.6608 58.1872 17.6679 58.1787 17.6767C57.5162 18.2886 56.6427 18.6205 55.741 18.603C54.8393 18.5855 53.9794 18.22 53.3411 17.5829C52.7028 16.9458 52.3356 16.0865 52.3164 15.1849C52.2972 14.2833 52.6275 13.4091 53.2381 12.7455C53.2469 12.737 53.254 12.7268 53.2588 12.7155C53.2636 12.7042 53.2661 12.6921 53.2661 12.6798C53.2661 12.6676 53.2636 12.6554 53.2588 12.6442C53.254 12.6329 53.2469 12.6227 53.2381 12.6142L49.0756 8.4517C48.8932 8.2656 48.6758 8.11741 48.436 8.01568C48.1961 7.91395 47.9385 7.86067 47.6779 7.85893C47.4174 7.85719 47.1591 7.90701 46.9178 8.00553C46.6766 8.10404 46.4573 8.24931 46.2725 8.43295L38.8193 15.8861C38.8328 16.0227 38.8163 16.1605 38.7709 16.2901C38.7256 16.4196 38.6525 16.5377 38.5568 16.6361C38.4698 16.7237 38.366 16.793 38.2517 16.8397C38.1373 16.8864 38.0147 16.9096 37.8912 16.908C37.8631 16.908 37.835 16.8986 37.8068 16.8986L23.2568 31.4486H52.235C52.1843 31.2503 52.2003 31.0408 52.2803 30.8524C52.3603 30.664 52.5001 30.5072 52.678 30.406C52.8559 30.3047 53.0621 30.2648 53.265 30.2923C53.4678 30.3197 53.656 30.4131 53.8006 30.558L54.4662 31.2236C54.5327 31.2903 54.5895 31.3661 54.635 31.4486H55.6943L62.4912 24.6517C62.8602 24.2755 63.0653 23.7685 63.0618 23.2416C63.0583 22.7146 62.8464 22.2105 62.4725 21.8392ZM41.21 19.2892C41.1229 19.3769 41.0191 19.4461 40.9048 19.4928C40.7904 19.5395 40.6678 19.5627 40.5443 19.5611C40.4209 19.5619 40.2986 19.5383 40.1844 19.4916C40.0701 19.445 39.9662 19.3762 39.8787 19.2892L39.2225 18.6236C39.0472 18.4483 38.9487 18.2105 38.9487 17.9626C38.9487 17.7147 39.0472 17.477 39.2225 17.3017C39.3978 17.1264 39.6355 17.0279 39.8834 17.0279C40.1313 17.0279 40.369 17.1264 40.5443 17.3017L41.21 17.9673C41.2969 18.0541 41.3658 18.1571 41.4129 18.2705C41.4599 18.3839 41.4841 18.5055 41.4841 18.6283C41.4841 18.751 41.4599 18.8726 41.4129 18.986C41.3658 19.0994 41.2969 19.2025 41.21 19.2892ZM43.8631 21.9423C43.6854 22.1166 43.4464 22.2143 43.1975 22.2143C42.9485 22.2143 42.7095 22.1166 42.5318 21.9423L41.8756 21.2767C41.7866 21.1912 41.7158 21.0885 41.6675 20.9749C41.6191 20.8614 41.5942 20.7392 41.5942 20.6158C41.5942 20.4923 41.6191 20.3702 41.6675 20.2566C41.7158 20.143 41.7866 20.0404 41.8756 19.9548C41.9623 19.8679 42.0653 19.799 42.1788 19.7519C42.2922 19.7049 42.4137 19.6807 42.5365 19.6807C42.6593 19.6807 42.7809 19.7049 42.8943 19.7519C43.0077 19.799 43.1107 19.8679 43.1975 19.9548L43.8631 20.6111C44.0387 20.7881 44.1373 21.0273 44.1373 21.2767C44.1373 21.5261 44.0387 21.7653 43.8631 21.9423ZM46.5162 24.5955C46.337 24.7674 46.099 24.8646 45.8506 24.8673C45.6019 24.8663 45.3632 24.7689 45.185 24.5955L44.5193 23.9298C44.4324 23.8431 44.3635 23.7401 44.3164 23.6267C44.2694 23.5132 44.2452 23.3917 44.2452 23.2689C44.2452 23.1461 44.2694 23.0245 44.3164 22.9111C44.3635 22.7977 44.4324 22.6947 44.5193 22.608C44.6963 22.4323 44.9356 22.3337 45.185 22.3337C45.4343 22.3337 45.6736 22.4323 45.8506 22.608L46.5162 23.2642C46.6919 23.4412 46.7904 23.6805 46.7904 23.9298C46.7904 24.1792 46.6919 24.4184 46.5162 24.5955ZM49.16 27.2486C48.9853 27.4217 48.7496 27.5193 48.5037 27.5205C48.255 27.5195 48.0164 27.422 47.8381 27.2486L47.1725 26.583C47.085 26.4955 47.0157 26.3918 46.9684 26.2776C46.9211 26.1634 46.8967 26.0409 46.8967 25.9173C46.8967 25.7937 46.9211 25.6713 46.9684 25.5571C47.0157 25.4429 47.085 25.3391 47.1725 25.2517C47.2599 25.1643 47.3636 25.095 47.4779 25.0476C47.5921 25.0003 47.7145 24.976 47.8381 24.976C47.9617 24.976 48.0841 25.0003 48.1983 25.0476C48.3125 25.095 48.4163 25.1643 48.5037 25.2517L49.16 25.9173C49.3356 26.0943 49.4342 26.3336 49.4342 26.583C49.4342 26.8323 49.3356 27.0716 49.16 27.2486ZM51.8131 29.8923C51.7275 29.9813 51.6249 30.0521 51.5113 30.1005C51.3978 30.1488 51.2756 30.1737 51.1521 30.1737C51.0287 30.1737 50.9065 30.1488 50.793 30.1005C50.6794 30.0521 50.5768 29.9813 50.4912 29.8923L49.8256 29.2361C49.6499 29.0591 49.5514 28.8198 49.5514 28.5705C49.5514 28.3211 49.6499 28.0818 49.8256 27.9048C49.9123 27.8179 50.0153 27.749 50.1287 27.7019C50.2422 27.6549 50.3637 27.6307 50.4865 27.6307C50.6093 27.6307 50.7309 27.6549 50.8443 27.7019C50.9577 27.749 51.0607 27.8179 51.1475 27.9048L51.8131 28.5705C51.9 28.6572 51.9689 28.7602 52.016 28.8736C52.063 28.987 52.0872 29.1086 52.0872 29.2314C52.0872 29.3542 52.063 29.4757 52.016 29.5892C51.9689 29.7026 51.9 29.8056 51.8131 29.8923ZM32.1031 47.7358C31.8348 47.7358 31.5725 47.8153 31.3494 47.9644C31.1263 48.1134 30.9525 48.3253 30.8498 48.5732C30.7471 48.8211 30.7202 49.0938 30.7726 49.357C30.8249 49.6201 30.9541 49.8618 31.1439 50.0516C31.3336 50.2413 31.5753 50.3705 31.8384 50.4228C32.1016 50.4752 32.3743 50.4483 32.6222 50.3456C32.8701 50.243 33.082 50.0691 33.231 49.846C33.3801 49.6229 33.4596 49.3606 33.4596 49.0923C33.4592 48.7327 33.3161 48.3879 33.0618 48.1336C32.8075 47.8793 32.4627 47.7363 32.1031 47.7358Z" fill="#691188"/>
<path d="M59.9791 41.3019C59.9915 41.3019 60.0037 41.2994 60.015 41.2947C60.0264 41.29 60.0367 41.2831 60.0454 41.2744C60.0541 41.2657 60.0611 41.2554 60.0658 41.244C60.0705 41.2326 60.0729 41.2204 60.0729 41.2081V35.3206C60.0751 34.7936 59.8681 34.2872 59.4971 33.9128C59.1262 33.5383 58.6218 33.3265 58.0948 33.3237H47.7767V33.6406C47.7767 33.8892 47.6779 34.1277 47.5021 34.3035C47.3262 34.4793 47.0878 34.5781 46.8392 34.5781C46.5905 34.5781 46.3521 34.4793 46.1762 34.3035C46.0004 34.1277 45.9017 33.8892 45.9017 33.6406V33.3237H14.4167C14.1555 33.3243 13.897 33.3765 13.656 33.4773C13.4151 33.5781 13.1964 33.7256 13.0126 33.9111C12.8288 34.0967 12.6835 34.3167 12.585 34.5586C12.4864 34.8005 12.4367 35.0594 12.4385 35.3206V41.2081C12.4385 41.2204 12.441 41.2326 12.4457 41.244C12.4504 41.2554 12.4573 41.2657 12.466 41.2744C12.4747 41.2831 12.485 41.29 12.4964 41.2947C12.5078 41.2994 12.52 41.3019 12.5323 41.3019C13.433 41.338 14.2848 41.7213 14.9093 42.3714C15.5337 43.0214 15.8825 43.8879 15.8825 44.7894C15.8825 45.6908 15.5337 46.5573 14.9093 47.2073C14.2848 47.8574 13.433 48.2407 12.5323 48.2769C12.508 48.2786 12.4851 48.289 12.4679 48.3063C12.4507 48.3235 12.4403 48.3463 12.4385 48.3706V54.2675C12.4377 54.5279 12.4882 54.786 12.5872 55.0269C12.6861 55.2678 12.8317 55.4869 13.0154 55.6715C13.1991 55.8561 13.4175 56.0026 13.6579 56.1028C13.8984 56.2029 14.1562 56.2546 14.4167 56.255H45.926C45.9153 56.2171 45.9072 56.1786 45.9017 56.1397V55.2022C45.9017 54.9535 46.0004 54.7151 46.1762 54.5393C46.3521 54.3634 46.5905 54.2647 46.8392 54.2647C47.0878 54.2647 47.3262 54.3634 47.5021 54.5393C47.6779 54.7151 47.7767 54.9535 47.7767 55.2022V56.1397C47.7717 56.1786 47.7642 56.2171 47.7542 56.255H58.0948C58.6203 56.2528 59.1236 56.0423 59.4944 55.6698C59.8651 55.2973 60.0732 54.7931 60.0729 54.2675V48.3706C60.0712 48.3463 60.0607 48.3235 60.0435 48.3063C60.0263 48.289 60.0034 48.2786 59.9791 48.2769C59.074 48.2472 58.2159 47.8667 57.5861 47.2159C56.9563 46.5652 56.6042 45.695 56.6042 44.7894C56.6042 43.8837 56.9563 43.0136 57.5861 42.3628C58.2159 41.712 59.074 41.3315 59.9791 41.3019ZM24.6485 37.2584C25.2877 37.2584 25.9125 37.4479 26.4439 37.803C26.9753 38.1581 27.3895 38.6628 27.6341 39.2533C27.8787 39.8438 27.9427 40.4936 27.818 41.1204C27.6933 41.7473 27.3855 42.3231 26.9336 42.775C26.4816 43.227 25.9058 43.5348 25.279 43.6595C24.6521 43.7841 24.0024 43.7201 23.4119 43.4756C22.8214 43.231 22.3167 42.8168 21.9616 42.2853C21.6065 41.7539 21.417 41.1291 21.417 40.49C21.418 39.6332 21.7587 38.8118 22.3646 38.206C22.9704 37.6002 23.7918 37.2594 24.6485 37.2584ZM22.3535 52.324C22.1718 52.3239 21.9941 52.271 21.8419 52.1717C21.6897 52.0724 21.5697 51.931 21.4964 51.7647C21.4231 51.5985 21.3997 51.4145 21.429 51.2352C21.4584 51.0558 21.5392 50.8889 21.6617 50.7547L33.7057 37.564C33.788 37.4705 33.8881 37.3943 34.0001 37.3398C34.1122 37.2854 34.2339 37.2539 34.3583 37.247C34.4827 37.2402 34.6072 37.2582 34.7245 37.3001C34.8419 37.3419 34.9497 37.4067 35.0417 37.4907C35.1337 37.5746 35.2081 37.6761 35.2604 37.7891C35.3128 37.9022 35.3421 38.0245 35.3466 38.149C35.3512 38.2735 35.3308 38.3976 35.2868 38.5142C35.2428 38.6307 35.1761 38.7374 35.0904 38.8278L23.0463 52.0175C22.9586 52.114 22.8517 52.1911 22.7323 52.2438C22.613 52.2964 22.484 52.3244 22.3535 52.324ZM32.1035 52.324C31.4644 52.324 30.8396 52.1345 30.3082 51.7794C29.7767 51.4243 29.3625 50.9196 29.118 50.3291C28.8734 49.7387 28.8094 49.0889 28.9341 48.462C29.0587 47.8352 29.3665 47.2594 29.8185 46.8074C30.2704 46.3555 30.8462 46.0477 31.4731 45.923C32.0999 45.7983 32.7497 45.8623 33.3402 46.1069C33.9307 46.3515 34.4354 46.7657 34.7905 47.2971C35.1456 47.8285 35.3351 48.4533 35.3351 49.0925C35.3341 49.9492 34.9933 50.7706 34.3875 51.3764C33.7817 51.9823 32.9603 52.3231 32.1035 52.324ZM47.7767 52.3897C47.7767 52.6383 47.6779 52.8768 47.5021 53.0526C47.3262 53.2284 47.0878 53.3272 46.8392 53.3272C46.5905 53.3272 46.3521 53.2284 46.1762 53.0526C46.0004 52.8768 45.9017 52.6383 45.9017 52.3897V51.4522C45.9017 51.2035 46.0004 50.9651 46.1762 50.7893C46.3521 50.6134 46.5905 50.5147 46.8392 50.5147C47.0878 50.5147 47.3262 50.6134 47.5021 50.7893C47.6779 50.9651 47.7767 51.2035 47.7767 51.4522V52.3897ZM47.7767 48.6397C47.7767 48.8883 47.6779 49.1268 47.5021 49.3026C47.3262 49.4784 47.0878 49.5772 46.8392 49.5772C46.5905 49.5772 46.3521 49.4784 46.1762 49.3026C46.0004 49.1268 45.9017 48.8883 45.9017 48.6397V47.7022C45.9017 47.4535 46.0004 47.2151 46.1762 47.0393C46.3521 46.8634 46.5905 46.7647 46.8392 46.7647C47.0878 46.7647 47.3262 46.8634 47.5021 47.0393C47.6779 47.2151 47.7767 47.4535 47.7767 47.7022V48.6397ZM47.7767 44.8897C47.7767 45.1383 47.6779 45.3768 47.5021 45.5526C47.3262 45.7284 47.0878 45.8272 46.8392 45.8272C46.5905 45.8272 46.3521 45.7284 46.1762 45.5526C46.0004 45.3768 45.9017 45.1383 45.9017 44.8897V43.9522C45.9017 43.7035 46.0004 43.4651 46.1762 43.2893C46.3521 43.1134 46.5905 43.0147 46.8392 43.0147C47.0878 43.0147 47.3262 43.1134 47.5021 43.2893C47.6779 43.4651 47.7767 43.7035 47.7767 43.9522V44.8897ZM47.7767 41.1397C47.7767 41.3883 47.6779 41.6268 47.5021 41.8026C47.3262 41.9784 47.0878 42.0772 46.8392 42.0772C46.5905 42.0772 46.3521 41.9784 46.1762 41.8026C46.0004 41.6268 45.9017 41.3883 45.9017 41.1397V40.2022C45.9017 39.9535 46.0004 39.7151 46.1762 39.5393C46.3521 39.3634 46.5905 39.2647 46.8392 39.2647C47.0878 39.2647 47.3262 39.3634 47.5021 39.5393C47.6779 39.7151 47.7767 39.9535 47.7767 40.2022V41.1397ZM47.7767 37.3897C47.7767 37.6383 47.6779 37.8768 47.5021 38.0526C47.3262 38.2284 47.0878 38.3272 46.8392 38.3272C46.5905 38.3272 46.3521 38.2284 46.1762 38.0526C46.0004 37.8768 45.9017 37.6383 45.9017 37.3897V36.4522C45.9017 36.2035 46.0004 35.9651 46.1762 35.7893C46.3521 35.6134 46.5905 35.5147 46.8392 35.5147C47.0878 35.5147 47.3262 35.6134 47.5021 35.7893C47.6779 35.9651 47.7767 36.2035 47.7767 36.4522V37.3897Z" fill="#691188"/>
<path d="M24.6486 41.8454C24.9169 41.8454 25.1792 41.7659 25.4023 41.6168C25.6254 41.4677 25.7993 41.2557 25.9019 41.0078C26.0046 40.7599 26.0314 40.4871 25.979 40.2239C25.9266 39.9607 25.7973 39.719 25.6075 39.5293C25.4176 39.3396 25.1758 39.2105 24.9126 39.1583C24.6494 39.106 24.3766 39.133 24.1288 39.2359C23.8809 39.3387 23.6691 39.5127 23.5202 39.7359C23.3712 39.9591 23.2918 40.2215 23.292 40.4898C23.2925 40.8494 23.4356 41.194 23.6899 41.4482C23.9442 41.7023 24.289 41.8452 24.6486 41.8454Z" fill="#691188"/>
</svg>
